<svg width="21px" height="16px" viewBox="0 0 21 16" version="1.1" xmlns="http://www.w3.org/2000/svg" xmlns:xlink="http://www.w3.org/1999/xlink">
  <defs>
    <radialGradient cx="79.9904482%" cy="76.550293%" fx="79.9904482%" fy="76.550293%" r="91.3073959%" gradientTransform="translate(0.799904,0.765503),scale(0.783455,1.000000),rotate(-143.644859),scale(1.000000,0.540680),translate(-0.799904,-0.765503)" id="radialGradient-1">
      <stop stop-color="#7E00E8" offset="0%"></stop>
      <stop stop-color="#FF1876" offset="40.1611328%"></stop>
      <stop stop-color="#BB0CB2" offset="100%"></stop>
    </radialGradient>
  </defs>
  <g id="Symbols" stroke="none" stroke-width="1" fill="none" fill-rule="evenodd">
    <g id="Navigation" transform="translate(-834.000000, -16.000000)" fill="url(#radialGradient-1)">
      <g id="cart" transform="translate(666.000000, 10.000000)">
        <g id="Group-10" transform="translate(138.000000, 0.000000)">
          <g id="Group-7" transform="translate(0.000000, 6.000000)">
            <path d="M35.8136646,10.5838509 L48.5838509,10.5838509 L48.5838509,10.5838509 L48.5838509,10.5838509 C48.6335404,10.5838509 48.6832298,10.5838509 48.7329193,10.5341615 L48.7826087,10.5341615 C48.8322981,10.5341615 48.8322981,10.484472 48.8322981,10.484472 C48.8322981,10.484472 48.8322981,10.4347826 48.8819876,10.4347826 L48.931677,10.3850932 L48.931677,10.3354037 C48.931677,10.3354037 48.931677,10.3354037 48.931677,10.2857143 L50.4223602,3.0310559 L50.4223602,2.98136646 C50.4223602,2.98136646 50.4223602,2.98136646 50.4223602,2.93167702 C50.4223602,2.93167702 50.4223602,2.93167702 50.4223602,2.88198758 L50.4223602,2.83229814 C50.4223602,2.83229814 50.4223602,2.7826087 50.3726708,2.7826087 C50.3726708,2.7826087 50.3726708,2.73291925 50.3229814,2.73291925 L50.2732919,2.68322981 L50.2236025,2.63354037 C50.2236025,2.63354037 50.173913,2.63354037 50.173913,2.58385093 C50.173913,2.58385093 50.173913,2.58385093 50.1242236,2.58385093 L50.0745342,2.58385093 C50.0745342,2.58385093 50.0745342,2.58385093 50.0248447,2.58385093 L45.8012422,2.58385093 L44.757764,2.58385093 L34.5714286,2.58385093 L34.0745342,0.298136646 C34.0745342,0.298136646 34.0745342,0.298136646 34.0745342,0.248447205 C34.0745342,0.198757764 34.0745342,0.198757764 34.0248447,0.198757764 C34.0248447,0.198757764 34.0248447,0.149068323 33.9751553,0.149068323 L33.9254658,0.099378882 L33.8757764,0.049689441 C33.8757764,0.049689441 33.826087,0.049689441 33.826087,4.4408921e-15 L33.7267081,4.4408921e-15 C33.7267081,4.4408921e-15 33.7267081,4.4408921e-15 33.6770186,4.4408921e-15 L30.3975155,4.4408921e-15 C30.1987578,4.4408921e-15 30,0.149068323 30,0.397515528 C30,0.645962733 30.1490683,0.795031056 30.3975155,0.795031056 L33.378882,0.795031056 L35.3167702,9.9378882 C34.4720497,10.136646 33.826087,10.8819876 33.826087,11.826087 C33.826087,12.8695652 34.6708075,13.7639752 35.7639752,13.7639752 L36.7080745,13.7639752 C36.5590062,13.9627329 36.5093168,14.2111801 36.5093168,14.5093168 C36.5093168,15.3540373 37.1552795,16 38,16 C38.8447205,16 39.4906832,15.3540373 39.4906832,14.5093168 C39.4906832,14.2608696 39.3913043,13.9627329 39.2919255,13.7639752 L45.0062112,13.7639752 C44.8571429,13.9627329 44.8074534,14.2111801 44.8074534,14.5093168 C44.8074534,15.3540373 45.4534161,16 46.2981366,16 C47.1428571,16 47.7888199,15.3540373 47.7888199,14.5093168 C47.7888199,14.2608696 47.689441,13.9627329 47.5900621,13.7639752 L48.5341615,13.7639752 C48.7329193,13.7639752 48.931677,13.6149068 48.931677,13.3664596 C48.931677,13.1180124 48.7826087,12.9689441 48.5341615,12.9689441 L35.8136646,12.9689441 C35.1677019,12.9689441 34.621118,12.4223602 34.621118,11.7763975 C34.621118,11.1304348 35.1677019,10.5838509 35.8136646,10.5838509 L35.8136646,10.5838509 Z M44.8074534,3.32919255 L45.8509317,3.32919255 L49.6273292,3.32919255 L48.2857143,9.83850932 L36.1118012,9.83850932 L34.7204969,3.32919255 L44.8074534,3.32919255 L44.8074534,3.32919255 Z M38.7950311,14.4596273 C38.7950311,14.8571429 38.447205,15.2049689 38.0496894,15.2049689 C37.6521739,15.2049689 37.3043478,14.8571429 37.3043478,14.4596273 C37.3043478,14.0621118 37.6521739,13.7142857 38.0496894,13.7142857 C38.447205,13.7142857 38.7950311,14.0621118 38.7950311,14.4596273 L38.7950311,14.4596273 Z M47.0931677,14.4596273 C47.0931677,14.8571429 46.7453416,15.2049689 46.3478261,15.2049689 C45.9503106,15.2049689 45.6024845,14.8571429 45.6024845,14.4596273 C45.6024845,14.0621118 45.9503106,13.7142857 46.3478261,13.7142857 C46.7453416,13.7142857 47.0931677,14.0621118 47.0931677,14.4596273 L47.0931677,14.4596273 Z" id="Shape"></path>
          </g>
        </g>
      </g>
    </g>
  </g>
</svg>